<svg width="24px" height="24px" viewBox="0 0 24 24" id="magicoon-Filled" xmlns="http://www.w3.org/2000/svg"><defs><style>.cls-1{fill:#41416e;}</style></defs><title>plus-square</title><g id="plus-square-Filled"><path id="plus-square-Filled-2" data-name="plus-square-Filled" class="cls-1" d="M15,2.5H9A6.513,6.513,0,0,0,2.5,9v6A6.513,6.513,0,0,0,9,21.5h6A6.513,6.513,0,0,0,21.5,15V9A6.513,6.513,0,0,0,15,2.5ZM16,13H13v3a1,1,0,0,1-2,0V13H8a1,1,0,0,1,0-2h3V8a1,1,0,0,1,2,0v3h3a1,1,0,0,1,0,2Z"/></g></svg>