<svg width="24px" height="24px" viewBox="0 0 24 24" id="magicoon-Filled" xmlns="http://www.w3.org/2000/svg"><defs><style>.cls-1{fill:#41416e;}</style></defs><title>trash</title><g id="trash-Filled"><path id="trash-Filled-2" data-name="trash-Filled" class="cls-1" d="M22,6a1,1,0,0,1-1,1H3A1,1,0,0,1,3,5H6.559a1,1,0,0,0,.948-.684l.316-.948A2,2,0,0,1,9.721,2h4.558a2,2,0,0,1,1.9,1.367l.316.95A1,1,0,0,0,17.441,5H21A1,1,0,0,1,22,6ZM19.3,9.03l-.61,9.2a3.523,3.523,0,0,1-3.5,3.27H8.81a3.521,3.521,0,0,1-3.5-3.26L4.7,9.03a.511.511,0,0,1,.13-.37A.523.523,0,0,1,5.2,8.5H18.8a.523.523,0,0,1,.37.16A.511.511,0,0,1,19.3,9.03ZM11,12a1,1,0,0,0-2,0v5a1,1,0,0,0,2,0Zm4,0a1,1,0,0,0-2,0v5a1,1,0,0,0,2,0Z"/></g></svg>